<?xml version="1.0" encoding="utf-8"?>
<!-- Generator: Adobe Illustrator 16.0.0, SVG Export Plug-In . SVG Version: 6.00 Build 0)  -->
<!DOCTYPE svg PUBLIC "-//W3C//DTD SVG 1.1//EN" "http://www.w3.org/Graphics/SVG/1.1/DTD/svg11.dtd">
<svg version="1.1" id="Layer_1" xmlns="http://www.w3.org/2000/svg" xmlns:xlink="http://www.w3.org/1999/xlink" x="0px" y="0px"
	 width="184px" height="107px" viewBox="0 0 184 107" enable-background="new 0 0 184 107" xml:space="preserve">
<path fill="#EF7A32" d="M38.635,29.52c9.054,0,14.486,6.188,14.486,14.94c0,10.263-6.866,18.179-17.504,18.179
	c-8.299,0-14.26-5.203-14.26-15.086C21.357,37.215,28.45,29.52,38.635,29.52L38.635,29.52z M22.715,10.885L11.926,66.717h5.282
	l1.509-8.148h0.15c3.924,8.07,11.845,9.13,16.297,9.13c5.131,0,10.94-1.134,16.07-5.66c6.413-5.733,7.47-12.902,7.47-17.729
	c0-5.884-1.66-11.544-6.64-15.694c-3.848-3.243-7.997-4.149-12.598-4.149c-8.677,0-12.752,3.244-14.713,5.66h-0.151l3.698-19.24
	L22.715,10.885L22.715,10.885z"/>
<path fill="#4E88C7" d="M105.65,31.482h-7.168l0.979-5.057h7.172l0.15-0.83c2.411-13.431,13.127-13.73,16.674-13.73h1.131
	l-0.983,5.054h-1.129c-8.147,0-9.734,6.489-10.109,8.677l-0.154,0.83h9.51l-0.981,5.057h-9.505l-7.02,36.215h-5.582L105.65,31.482z"
	/>
<polygon fill="#4E88C7" points="130.902,11.865 136.48,11.865 125.618,67.697 120.035,67.697 "/>
<g>
	<g>
		<path fill="#EF7A32" d="M97.541,26.521C87.128,36.295,78.953,47.14,72.638,57.398L64.861,25.67h-5.58l9.422,38.456
			C58.033,83.35,54.051,98.993,54.051,98.993L97.541,26.521z"/>
	</g>
</g>
<g>
	<g>
		<path fill="#4E88C7" d="M174.477,26.521c-10.412,9.774-18.588,20.619-24.902,30.877l-7.776-31.729h-5.579l9.422,38.456
			c-10.67,19.224-14.652,34.866-14.652,34.866L174.477,26.521z"/>
	</g>
</g>
</svg>
